<?xml version="1.0" encoding="UTF-8" ?>
<!DOCTYPE svg PUBLIC "-//W3C//DTD SVG 1.1//EN" "http://www.w3.org/Graphics/SVG/1.1/DTD/svg11.dtd">
<svg width="32pt" height="32pt" viewBox="0 0 32 32" version="1.1" xmlns="http://www.w3.org/2000/svg">
<g id="#88d1f1ff">
<path fill="#88d1f1" opacity="1.00" d=" M 0.00 0.00 L 32.00 0.00 L 32.00 32.00 L 0.00 32.00 L 0.00 0.00 M 4.32 13.84 C 5.58 13.84 6.84 13.85 8.10 13.86 C 7.50 14.50 6.29 15.78 5.68 16.42 C 6.71 16.38 8.76 16.31 9.79 16.28 C 9.00 17.16 8.22 18.05 7.44 18.95 C 8.22 18.91 9.78 18.83 10.55 18.79 C 10.31 19.57 9.82 21.12 9.58 21.89 C 12.00 23.91 14.68 25.65 17.71 26.59 C 17.80 24.43 17.63 22.22 18.21 20.11 C 19.99 16.27 24.87 20.01 27.70 17.41 C 27.80 15.80 27.85 14.18 27.90 12.56 C 25.24 11.87 22.69 10.68 21.36 8.13 C 19.05 7.35 16.47 7.27 14.05 6.77 C 9.70 7.13 7.12 10.99 4.32 13.84 Z" />
</g>
<g id="#000000ff">
<path fill="#000000" opacity="1.00" d=" M 4.32 13.84 C 7.12 10.99 9.70 7.13 14.05 6.77 C 16.47 7.27 19.05 7.35 21.36 8.13 C 22.69 10.68 25.24 11.87 27.90 12.56 C 27.85 14.18 27.80 15.80 27.70 17.41 C 24.87 20.01 19.99 16.27 18.21 20.11 C 17.63 22.22 17.80 24.43 17.71 26.59 C 14.68 25.65 12.00 23.91 9.58 21.89 C 9.82 21.12 10.31 19.57 10.55 18.79 C 9.78 18.83 8.22 18.91 7.44 18.95 C 8.22 18.05 9.00 17.16 9.79 16.28 C 8.76 16.31 6.71 16.38 5.68 16.42 C 6.29 15.78 7.50 14.50 8.10 13.86 C 6.84 13.85 5.58 13.84 4.32 13.84 Z" />
</g>
</svg>
