<?xml version="1.0" standalone="no"?><!DOCTYPE svg PUBLIC "-//W3C//DTD SVG 1.1//EN" "http://www.w3.org/Graphics/SVG/1.1/DTD/svg11.dtd"><svg t="1618827912498" class="icon" viewBox="0 0 1024 1024" version="1.1" xmlns="http://www.w3.org/2000/svg" p-id="4734" xmlns:xlink="http://www.w3.org/1999/xlink" width="128" height="128"><defs><style type="text/css"></style></defs><path d="M1010.875075 562.972928c-10.099009 10.102079-25.371854 10.910491-36.928051 3.517103-1.788739-1.144056-3.733021-1.955538-5.297656-3.517103l-38.606273-38.609343 0 345.962429c0 65.871243-53.569056 119.43723-119.440299 119.43723l-0.00307 0L601.582271 989.763245l-0.00307 0c-16.503882 0-29.860075-13.356193-29.860075-29.863145 0 34.592866 0 13.066597 0-29.853935l0 0L571.719126 780.736581c0-32.920784-26.796296-59.72015-59.72015-59.72015l0.00614 0c-32.923854 0-59.72322 26.799366-59.72322 59.72015l0 149.309584 0 0c0 42.920532 0 64.446801 0 29.853935 0 16.506952-13.356193 29.863145-29.860075 29.863145l-0.00307 0L213.400275 989.763245l-0.00307 0c-65.871243 0-119.440299-53.565986-119.440299-119.43723L93.956905 524.363585l-38.606273 38.609343c-1.564635 1.561565-3.508917 2.37407-5.297656 3.517103-11.553127 7.393387-26.829042 6.583952-36.928051-3.517103-11.666714-11.666714-11.666714-30.562063 0-42.225707l64.829518-64.829518 24.775266-24.772196c0.00614-0.00614 0.00921-0.00921 0.01535-0.01535L490.890216 42.986023c5.831822-5.831822 13.469779-8.749268 21.110807-8.749268 7.637957 0 15.276938 2.917446 21.110807 8.749268l388.146181 388.146181c0.00307 0.00614 0.00614 0.00921 0.01228 0.01535l84.495416 84.495416 5.109368 5.106298C1022.540765 532.410865 1022.540765 551.306214 1010.875075 562.972928zM870.319875 464.643436 512.001023 106.321514 153.680125 464.643436l0 405.682579c0 32.917714 26.799366 59.71401 59.72015 59.71401l59.71708 0 89.580225 0 0 0.00614 29.860075 0L392.557654 780.736581c0-65.877383 53.565986-119.443369 119.440299-119.443369l0.00614 0-0.00614 0 0.00307 0c65.874313 0 119.440299 53.565986 119.440299 119.443369l0 149.309584 29.860075 0 0-0.00614 89.580225 0 59.71708 0c32.920784 0 59.72015-26.796296 59.72015-59.71401L870.318852 464.643436z" p-id="4735" fill="#2c2c2c"></path></svg>