<?xml version="1.0" encoding="UTF-8" ?>
<!DOCTYPE svg PUBLIC "-//W3C//DTD SVG 1.1//EN" "http://www.w3.org/Graphics/SVG/1.1/DTD/svg11.dtd">
<svg width="512pt" height="512pt" viewBox="0 0 512 512" version="1.1" xmlns="http://www.w3.org/2000/svg">
<g id="#fdff06ff">
<path fill="#fdff06" opacity="1.00" d=" M 330.52 146.75 C 333.50 145.63 336.92 145.68 339.91 146.79 C 391.55 165.03 443.21 183.23 494.85 201.48 C 497.40 202.70 499.21 205.22 499.83 207.96 C 499.74 211.37 496.95 213.97 493.90 215.04 C 442.95 235.99 392.05 257.03 341.10 277.97 C 336.46 279.10 331.19 279.14 326.83 276.94 C 277.30 256.55 227.79 236.10 178.25 215.73 C 175.06 214.60 171.82 212.76 170.34 209.57 C 169.10 205.62 172.92 202.53 176.19 201.28 C 227.63 183.09 279.11 165.04 330.52 146.75 M 310.37 198.53 C 306.44 200.54 302.61 204.54 303.80 209.34 C 305.20 213.81 309.58 216.61 313.82 218.02 C 325.49 222.05 338.36 222.18 350.30 219.30 C 356.62 217.65 364.26 214.64 365.50 207.34 C 364.82 204.26 363.23 201.42 360.60 199.61 C 355.14 195.94 348.47 194.79 342.06 194.03 C 331.40 193.66 320.10 193.50 310.37 198.53 Z" />
<path fill="#fdff06" opacity="1.00" d=" M 158.04 237.96 C 158.06 235.48 158.50 232.15 161.23 231.23 C 163.65 229.69 166.36 231.38 168.74 232.12 C 218.36 252.84 267.94 273.66 317.55 294.41 C 322.64 296.67 327.30 301.27 328.16 306.92 C 328.17 373.39 328.23 439.87 328.12 506.33 C 327.10 511.23 320.87 510.38 317.58 508.42 C 271.07 483.61 224.61 458.70 178.13 433.84 C 170.93 429.77 161.85 426.80 158.74 418.29 C 158.48 416.19 158.00 414.11 158.04 411.99 C 158.06 353.98 158.06 295.97 158.04 237.96 M 279.30 300.30 C 274.26 300.78 269.71 303.79 267.30 308.24 C 263.53 315.19 264.17 323.59 266.50 330.91 C 269.90 340.91 276.67 350.21 286.44 354.73 C 291.08 356.65 296.59 357.74 301.21 355.15 C 307.69 352.76 310.26 345.44 310.90 339.12 C 311.14 327.81 306.35 316.65 298.44 308.63 C 293.26 303.86 286.52 299.90 279.30 300.30 M 220.05 343.12 C 216.57 348.80 217.29 355.77 217.92 362.09 C 221.16 374.76 229.54 387.31 242.69 391.05 C 248.63 391.90 255.58 390.03 258.46 384.32 C 263.56 375.76 261.39 365.13 257.69 356.47 C 253.41 347.46 246.12 338.81 236.00 336.52 C 230.01 334.72 222.98 337.55 220.05 343.12 M 176.91 373.94 C 173.30 378.43 171.85 384.37 172.33 390.06 C 173.31 400.58 178.19 410.76 186.00 417.93 C 190.41 421.75 196.14 424.62 202.11 424.02 C 207.10 423.29 211.42 419.59 213.01 414.82 C 216.06 406.79 214.13 397.87 210.91 390.21 C 206.51 380.30 198.12 370.82 186.72 369.73 C 183.17 370.25 179.37 371.09 176.91 373.94 Z" />
<path fill="#fdff06" opacity="1.00" d=" M 458.13 250.37 C 474.50 243.73 490.57 236.30 507.17 230.24 C 508.93 231.12 510.57 232.21 512.00 233.57 L 512.00 417.36 C 510.34 422.45 506.45 426.49 501.70 428.83 C 452.25 455.33 402.76 481.78 353.29 508.24 C 349.98 510.11 345.63 510.91 342.64 508.01 C 341.70 504.08 341.74 500.04 341.82 496.03 C 341.85 434.35 341.81 372.67 341.84 311.00 C 341.54 303.66 346.45 296.89 353.22 294.31 C 388.18 279.65 423.16 265.02 458.13 250.37 M 388.41 328.47 C 381.87 336.87 378.36 347.97 380.29 358.57 C 381.34 363.64 384.39 368.71 389.47 370.55 C 395.47 373.41 402.33 370.74 407.59 367.48 C 416.12 361.48 421.93 352.07 424.23 341.96 C 425.62 335.14 425.32 327.58 421.14 321.73 C 418.87 318.29 414.88 316.73 411.04 315.84 C 410.27 315.86 408.75 315.91 407.99 315.93 C 400.06 317.07 392.99 322.02 388.41 328.47 M 461.51 357.63 C 455.30 359.58 449.83 363.72 446.05 369.00 C 440.11 376.63 436.73 386.45 437.33 396.14 C 437.84 402.41 441.24 409.37 447.80 411.06 C 451.45 412.55 455.36 411.23 458.90 410.06 C 468.94 405.61 475.41 395.68 478.59 385.49 C 480.93 377.59 481.16 368.04 475.55 361.42 C 472.11 357.37 466.46 356.61 461.51 357.63 Z" />
</g>
<g id="#000000ff">
<path fill="#000000" opacity="1.00" d=" M 310.37 198.53 C 320.10 193.50 331.40 193.66 342.06 194.03 C 348.47 194.79 355.14 195.94 360.60 199.61 C 363.23 201.42 364.82 204.26 365.50 207.34 C 364.26 214.64 356.62 217.65 350.30 219.30 C 338.36 222.18 325.49 222.05 313.82 218.02 C 309.58 216.61 305.20 213.81 303.80 209.34 C 302.61 204.54 306.44 200.54 310.37 198.53 Z" />
<path fill="#000000" opacity="1.00" d=" M 279.30 300.30 C 286.52 299.90 293.26 303.86 298.44 308.63 C 306.35 316.65 311.14 327.81 310.90 339.12 C 310.26 345.44 307.69 352.76 301.21 355.15 C 296.59 357.74 291.08 356.65 286.44 354.73 C 276.67 350.21 269.90 340.91 266.50 330.91 C 264.17 323.59 263.53 315.19 267.30 308.24 C 269.71 303.79 274.26 300.78 279.30 300.30 Z" />
<path fill="#000000" opacity="1.00" d=" M 388.41 328.47 C 392.99 322.02 400.06 317.07 407.99 315.93 C 408.75 315.91 410.27 315.86 411.04 315.84 C 414.88 316.73 418.87 318.29 421.14 321.73 C 425.32 327.58 425.62 335.14 424.23 341.96 C 421.93 352.07 416.12 361.48 407.59 367.48 C 402.33 370.74 395.47 373.41 389.47 370.55 C 384.39 368.71 381.34 363.64 380.29 358.57 C 378.36 347.97 381.87 336.87 388.41 328.47 Z" />
<path fill="#000000" opacity="1.00" d=" M 220.05 343.12 C 222.98 337.55 230.01 334.72 236.00 336.52 C 246.12 338.81 253.41 347.46 257.69 356.47 C 261.39 365.13 263.56 375.76 258.46 384.32 C 255.58 390.03 248.63 391.90 242.69 391.05 C 229.54 387.31 221.16 374.76 217.92 362.09 C 217.29 355.77 216.57 348.80 220.05 343.12 Z" />
<path fill="#000000" opacity="1.00" d=" M 461.51 357.63 C 466.46 356.61 472.11 357.37 475.55 361.42 C 481.16 368.04 480.93 377.59 478.59 385.49 C 475.41 395.68 468.94 405.61 458.90 410.06 C 455.36 411.23 451.45 412.55 447.80 411.06 C 441.24 409.37 437.84 402.41 437.33 396.14 C 436.73 386.45 440.11 376.63 446.05 369.00 C 449.83 363.72 455.30 359.58 461.51 357.63 Z" />
<path fill="#000000" opacity="1.00" d=" M 176.91 373.94 C 179.37 371.09 183.17 370.25 186.72 369.73 C 198.12 370.82 206.51 380.30 210.91 390.21 C 214.13 397.87 216.06 406.79 213.01 414.82 C 211.42 419.59 207.10 423.29 202.11 424.02 C 196.14 424.62 190.41 421.75 186.00 417.93 C 178.19 410.76 173.31 400.58 172.33 390.06 C 171.85 384.37 173.30 378.43 176.91 373.94 Z" />
</g>
</svg>
