<?xml version="1.0" standalone="no"?><!DOCTYPE svg PUBLIC "-//W3C//DTD SVG 1.1//EN" "http://www.w3.org/Graphics/SVG/1.1/DTD/svg11.dtd"><svg t="1615904776540" class="icon" viewBox="0 0 1024 1024" version="1.1" xmlns="http://www.w3.org/2000/svg" p-id="2071" xmlns:xlink="http://www.w3.org/1999/xlink" width="48" height="48"><defs><style type="text/css"></style></defs><path d="M513.2 212.8l372.3 598.1H147l366.2-598.1m0-61c-18.3 0-42.7 12.2-48.8 30.5L92.1 780.4c-24.4 42.7 6.1 91.5 48.8 91.5h738.5c48.8 0 79.3-54.9 48.8-91.5L562 182.3c-6.1-18.3-30.5-30.5-48.8-30.5z m0 0" fill="#FF262B" p-id="2072"></path><path d="M513.2 652.2c-18.3 0-30.5-12.2-30.5-30.5V438.6c0-18.3 12.2-30.5 30.5-30.5s30.5 12.2 30.5 30.5v183.1c0 18.3-12.2 30.5-30.5 30.5z m0 0M482.6 731.5c0 16.9 13.7 30.5 30.5 30.5 16.9 0 30.5-13.7 30.5-30.5 0-16.9-13.7-30.5-30.5-30.5s-30.5 13.7-30.5 30.5z m0 0" fill="#FF262B" p-id="2073"></path></svg>